<svg xmlns="http://www.w3.org/2000/svg" width="1200" height="750" viewBox="0 0 1200 750">
  <rect width="1200" height="750" fill="#F0EDE8"/>
  <rect x="1" y="1" width="1198" height="748" fill="none" stroke="#D8D0C8" stroke-width="1.5"/>
  <rect x="0" y="0" width="1200" height="60" fill="#E6E0D8"/>
  <rect x="24" y="18" width="140" height="24" rx="4" fill="#D0C8C0"/>
  <rect x="1040" y="18" width="40" height="24" rx="4" fill="#F07052" opacity="0.5"/>
  <rect x="60" y="100" width="1080" height="180" rx="8" fill="#EDE8E2"/>
  <rect x="80" y="124" width="320" height="22" rx="4" fill="#D0C8C0"/>
  <rect x="80" y="158" width="600" height="14" rx="3" fill="#D8D0C8"/>
  <rect x="80" y="180" width="540" height="14" rx="3" fill="#D8D0C8"/>
  <rect x="80" y="220" width="160" height="40" rx="4" fill="#F07052" opacity="0.55"/>
  <rect x="60" y="300" width="340" height="380" rx="8" fill="#E8E2DC"/>
  <rect x="80" y="320" width="300" height="200" rx="6" fill="#D8D0C8"/>
  <rect x="80" y="540" width="220" height="16" rx="3" fill="#D0C8C0"/>
  <rect x="80" y="566" width="180" height="14" rx="3" fill="#D8D0C8"/>
  <rect x="80" y="610" width="120" height="36" rx="4" fill="#F07052" opacity="0.45"/>
  <rect x="430" y="300" width="340" height="380" rx="8" fill="#E8E2DC"/>
  <rect x="450" y="320" width="300" height="200" rx="6" fill="#D8D0C8"/>
  <rect x="450" y="540" width="220" height="16" rx="3" fill="#D0C8C0"/>
  <rect x="450" y="566" width="180" height="14" rx="3" fill="#D8D0C8"/>
  <rect x="450" y="610" width="120" height="36" rx="4" fill="#F07052" opacity="0.45"/>
  <rect x="800" y="300" width="340" height="380" rx="8" fill="#E8E2DC"/>
  <rect x="820" y="320" width="300" height="200" rx="6" fill="#D8D0C8"/>
  <rect x="820" y="540" width="220" height="16" rx="3" fill="#D0C8C0"/>
  <rect x="820" y="566" width="180" height="14" rx="3" fill="#D8D0C8"/>
  <rect x="820" y="610" width="120" height="36" rx="4" fill="#F07052" opacity="0.45"/>
  <text x="600" y="718" font-family="system-ui, sans-serif" font-size="13" fill="#9B9087" text-anchor="middle">Design screenshot — placeholder C</text>
</svg>
