<svg xmlns="http://www.w3.org/2000/svg" width="1200" height="750" viewBox="0 0 1200 750">
  <rect width="1200" height="750" fill="#F0EDE8"/>
  <rect x="1" y="1" width="1198" height="748" fill="none" stroke="#D8D0C8" stroke-width="1.5"/>
  <rect x="0" y="0" width="1200" height="56" fill="#2E2820" opacity="0.9"/>
  <rect x="24" y="16" width="100" height="22" rx="3" fill="#F07052" opacity="0.7"/>
  <rect x="940" y="16" width="60" height="22" rx="3" fill="rgba(250,249,246,0.15)"/>
  <rect x="1016" y="16" width="60" height="22" rx="3" fill="rgba(250,249,246,0.15)"/>
  <rect x="1092" y="16" width="60" height="22" rx="3" fill="rgba(250,249,246,0.15)"/>
  <rect x="60" y="96" width="1080" height="56" rx="6" fill="#E8E2DC"/>
  <rect x="80" y="112" width="160" height="20" rx="3" fill="#D8D0C8"/>
  <rect x="260" y="112" width="100" height="20" rx="3" fill="#D8D0C8"/>
  <rect x="380" y="112" width="100" height="20" rx="3" fill="#D8D0C8"/>
  <rect x="60" y="172" width="520" height="520" rx="8" fill="#E8E2DC"/>
  <rect x="80" y="192" width="340" height="22" rx="4" fill="#D0C8C0"/>
  <rect x="80" y="228" width="460" height="14" rx="3" fill="#D8D0C8"/>
  <rect x="80" y="250" width="420" height="14" rx="3" fill="#D8D0C8"/>
  <rect x="80" y="272" width="380" height="14" rx="3" fill="#D8D0C8"/>
  <rect x="80" y="310" width="460" height="240" rx="6" fill="#D0C8C0"/>
  <rect x="80" y="570" width="120" height="40" rx="4" fill="#F07052" opacity="0.6"/>
  <rect x="220" y="570" width="120" height="40" rx="4" fill="#E8E2DC" stroke="#D0C8C0" stroke-width="1"/>
  <rect x="600" y="172" width="540" height="250" rx="8" fill="#EDE8E2"/>
  <rect x="620" y="192" width="180" height="18" rx="3" fill="#D0C8C0"/>
  <rect x="620" y="222" width="480" height="180" rx="5" fill="#D8D0C8"/>
  <rect x="600" y="438" width="540" height="250" rx="8" fill="#EDE8E2"/>
  <rect x="620" y="458" width="220" height="18" rx="3" fill="#D0C8C0"/>
  <rect x="620" y="488" width="480" height="170" rx="5" fill="#D8D0C8"/>
  <text x="600" y="718" font-family="system-ui, sans-serif" font-size="13" fill="#9B9087" text-anchor="middle">Design screenshot — placeholder B</text>
</svg>
